<svg xmlns="http://www.w3.org/2000/svg" version="1.1" xmlns:xlink="http://www.w3.org/1999/xlink" width="43" height="42"><svg width="43" height="42" viewBox="0 0 43 42" fill="none" xmlns="http://www.w3.org/2000/svg">
<path d="M21.5 1.5C32.5792 1.5 41.5 10.2635 41.5 21C41.5 31.7365 32.5792 40.5 21.5 40.5C10.4208 40.5 1.5 31.7365 1.5 21C1.5 10.2635 10.4208 1.5 21.5 1.5Z" stroke="#FAF7F7" stroke-width="3"></path>
<path d="M23.2148 29.7331V39.9754C30.6013 39.9754 33.2834 37.3987 33.701 36.1104V21.0368C26.4201 20.4699 23.6765 26.5981 23.2148 29.7331Z" fill="#0743B6"></path>
<path d="M21.5657 37.3619C21.4338 32.23 18.3869 21.5926 7.25439 20.0981C7.29836 26.2392 10.2222 38.2896 21.5657 37.3619Z" fill="#0E234C"></path>
<path d="M26.6284 15.6534L21.814 25.9601C17.9625 22.8681 17.3074 20.2914 17.4613 19.3896C16.8809 14.1331 21.4843 8.05214 23.8585 5.6687C28.3959 7.93619 27.5957 13.2699 26.6284 15.6534Z" fill="#2284FF"></path>
</svg><style>@media (prefers-color-scheme: light) { :root { filter: none; } }
@media (prefers-color-scheme: dark) { :root { filter: none; } }
</style></svg>