<svg width="25" height="25" viewBox="0 0 25 25" fill="none" xmlns="http://www.w3.org/2000/svg">
<circle cx="12.5" cy="12.5" r="12.5" fill="#2284FF"/>
<g clip-path="url(#clip0_233_894)">
<path d="M12.5 5C8.3579 5 5 8.3579 5 12.5C5 16.0172 7.4216 18.9686 10.6883 19.7792V14.792H9.1418V12.5H10.6883V11.5124C10.6883 8.9597 11.8436 7.7765 14.3498 7.7765C14.825 7.7765 15.6449 7.8698 15.9803 7.9628V10.0403C15.8033 10.0217 15.4958 10.0124 15.1139 10.0124C13.8842 10.0124 13.409 10.4783 13.409 11.6894V12.5H15.8588L15.4379 14.792H13.409V19.9451C17.1227 19.4966 20.0003 16.3346 20.0003 12.5C20 8.3579 16.6421 5 12.5 5Z" fill="#FAF7F7"/>
</g>
<defs>
<clipPath id="clip0_233_894">
<rect width="15" height="15" fill="white" transform="translate(5 5)"/>
</clipPath>
</defs>
</svg>
