<svg width="25" height="25" viewBox="0 0 25 25" fill="none" xmlns="http://www.w3.org/2000/svg">
<circle cx="12.5" cy="12.5" r="12.5" fill="#2284FF"/>
<g clip-path="url(#clip0_233_895)">
<path d="M6.35059 12.5C6.35059 10.4961 6.35937 10.2588 6.39453 9.4707C6.42676 8.73828 6.5498 8.34277 6.65234 8.0791C6.78711 7.73047 6.95117 7.47852 7.21191 7.21777C7.47559 6.9541 7.72461 6.79297 8.07324 6.6582C8.33691 6.55566 8.73535 6.43262 9.46484 6.40039C10.2559 6.36523 10.4932 6.35644 12.4941 6.35644C14.498 6.35644 14.7354 6.36523 15.5234 6.40039C16.2559 6.43262 16.6514 6.55566 16.915 6.6582C17.2637 6.79297 17.5156 6.95703 17.7764 7.21777C18.04 7.48145 18.2012 7.73047 18.3359 8.0791C18.4385 8.34277 18.5615 8.74121 18.5938 9.4707C18.6289 10.2617 18.6377 10.499 18.6377 12.5C18.6377 14.5039 18.6289 14.7412 18.5938 15.5293C18.5615 16.2617 18.4385 16.6572 18.3359 16.9209C18.2012 17.2695 18.0371 17.5215 17.7764 17.7822C17.5127 18.0459 17.2637 18.207 16.915 18.3418C16.6514 18.4443 16.2529 18.5674 15.5234 18.5996C14.7324 18.6348 14.4951 18.6436 12.4941 18.6436C10.4902 18.6436 10.2529 18.6348 9.46484 18.5996C8.73242 18.5674 8.33691 18.4443 8.07324 18.3418C7.72461 18.207 7.47266 18.043 7.21191 17.7822C6.94824 17.5186 6.78711 17.2695 6.65234 16.9209C6.5498 16.6572 6.42676 16.2588 6.39453 15.5293C6.35937 14.7412 6.35059 14.5039 6.35059 12.5ZM5 12.5C5 14.5361 5.00879 14.791 5.04395 15.5908C5.0791 16.3877 5.20801 16.9355 5.39258 17.4102C5.58594 17.9053 5.84082 18.3242 6.25977 18.7402C6.67578 19.1592 7.09473 19.4141 7.58691 19.6074C8.06445 19.792 8.60937 19.9209 9.40625 19.9561C10.209 19.9912 10.4639 20 12.5 20C14.5361 20 14.791 19.9912 15.5908 19.9561C16.3877 19.9209 16.9355 19.792 17.4102 19.6074C17.9053 19.4141 18.3242 19.1592 18.7402 18.7402C19.1562 18.3242 19.4141 17.9053 19.6045 17.4131C19.7891 16.9355 19.918 16.3906 19.9531 15.5937C19.9883 14.7939 19.9971 14.5391 19.9971 12.5029C19.9971 10.4668 19.9883 10.2119 19.9531 9.41211C19.918 8.61523 19.7891 8.06738 19.6045 7.59277C19.4141 7.10058 19.1562 6.68164 18.7402 6.26562C18.3242 5.84961 17.9053 5.5918 17.4131 5.40137C16.9355 5.2168 16.3906 5.08789 15.5938 5.05273C14.7939 5.01758 14.5391 5.00879 12.5029 5.00879C10.4668 5.00879 10.2119 5.01758 9.41211 5.05273C8.61523 5.08789 8.06738 5.2168 7.59277 5.40137C7.09473 5.58594 6.67578 5.84082 6.25977 6.25976C5.84375 6.67578 5.58594 7.09473 5.39551 7.58691C5.21094 8.06445 5.08203 8.60937 5.04688 9.40625C5.00879 10.209 5 10.4639 5 12.5Z" fill="white"/>
<path d="M8.64746 12.5C8.64746 14.627 10.373 16.3525 12.5 16.3525C14.627 16.3525 16.3525 14.627 16.3525 12.5C16.3525 10.373 14.627 8.64746 12.5 8.64746C10.373 8.64746 8.64746 10.373 8.64746 12.5ZM14.999 12.5C14.999 13.8799 13.8799 14.999 12.5 14.999C11.1201 14.999 10.001 13.8799 10.001 12.5C10.001 11.1201 11.1201 10.001 12.5 10.001C13.8799 10.001 14.999 11.1201 14.999 12.5Z" fill="white"/>
<path d="M8.49512 7.5957C8.99317 7.5957 9.39453 8 9.39453 8.49512C9.39453 8.99316 8.99024 9.39453 8.49512 9.39453C7.99707 9.39453 7.5957 8.99023 7.5957 8.49512C7.5957 8 8 7.5957 8.49512 7.5957Z" fill="white"/>
</g>
<defs>
<clipPath id="clip0_233_895">
<rect width="15" height="15" fill="white" transform="matrix(0 -1 1 0 5 20)"/>
</clipPath>
</defs>
</svg>
