<svg width="98" height="98" viewBox="0 0 98 98" fill="none" xmlns="http://www.w3.org/2000/svg">
<g filter="url(#filter0_d_233_1010)">
<circle cx="49" cy="45" r="45" fill="white"/>
<circle cx="49" cy="45" r="43" stroke="#F1F1F1" stroke-width="4"/>
</g>
<g filter="url(#filter1_d_233_1010)">
<path d="M28 38.7686C28 53.324 40.7334 65.3608 46.3696 69.9756C47.1762 70.6361 47.5843 70.9703 48.1861 71.1397C48.6547 71.2716 49.3444 71.2716 49.813 71.1397C50.4159 70.97 50.8212 70.639 51.6309 69.9761C57.267 65.3612 69.9998 53.3253 69.9998 38.7699C69.9998 33.2615 67.7874 27.9782 63.8491 24.0832C59.9109 20.1882 54.5698 18 49.0002 18C43.4307 18 38.089 20.1885 34.1508 24.0835C30.2125 27.9785 28 33.2602 28 38.7686Z" stroke="#2284FF" stroke-width="2" stroke-linecap="round" stroke-linejoin="round" shape-rendering="crispEdges"/>
<path d="M43 36C43 39.3137 45.6863 42 49 42C52.3137 42 55 39.3137 55 36C55 32.6863 52.3137 30 49 30C45.6863 30 43 32.6863 43 36Z" stroke="#2284FF" stroke-width="2" stroke-linecap="round" stroke-linejoin="round" shape-rendering="crispEdges"/>
</g>
<defs>
<filter id="filter0_d_233_1010" x="0" y="0" width="98" height="98" filterUnits="userSpaceOnUse" color-interpolation-filters="sRGB">
<feFlood flood-opacity="0" result="BackgroundImageFix"/>
<feColorMatrix in="SourceAlpha" type="matrix" values="0 0 0 0 0 0 0 0 0 0 0 0 0 0 0 0 0 0 127 0" result="hardAlpha"/>
<feOffset dy="4"/>
<feGaussianBlur stdDeviation="2"/>
<feComposite in2="hardAlpha" operator="out"/>
<feColorMatrix type="matrix" values="0 0 0 0 0 0 0 0 0 0 0 0 0 0 0 0 0 0 0.25 0"/>
<feBlend mode="normal" in2="BackgroundImageFix" result="effect1_dropShadow_233_1010"/>
<feBlend mode="normal" in="SourceGraphic" in2="effect1_dropShadow_233_1010" result="shape"/>
</filter>
<filter id="filter1_d_233_1010" x="23" y="17" width="51.9998" height="63.2388" filterUnits="userSpaceOnUse" color-interpolation-filters="sRGB">
<feFlood flood-opacity="0" result="BackgroundImageFix"/>
<feColorMatrix in="SourceAlpha" type="matrix" values="0 0 0 0 0 0 0 0 0 0 0 0 0 0 0 0 0 0 127 0" result="hardAlpha"/>
<feOffset dy="4"/>
<feGaussianBlur stdDeviation="2"/>
<feComposite in2="hardAlpha" operator="out"/>
<feColorMatrix type="matrix" values="0 0 0 0 0 0 0 0 0 0 0 0 0 0 0 0 0 0 0.25 0"/>
<feBlend mode="normal" in2="BackgroundImageFix" result="effect1_dropShadow_233_1010"/>
<feBlend mode="normal" in="SourceGraphic" in2="effect1_dropShadow_233_1010" result="shape"/>
</filter>
</defs>
</svg>
