<svg width="98" height="96" viewBox="0 0 98 96" fill="none" xmlns="http://www.w3.org/2000/svg">
<path d="M49 4C73.931 4 94 23.7768 94 48C94 72.2232 73.931 92 49 92C24.069 92 4 72.2232 4 48C4 23.7768 24.069 4 49 4Z" stroke="#121826" stroke-width="8"/>
<path d="M52.908 67.9613V91.3724C69.7423 91.3724 75.8548 85.4828 76.8067 82.538V48.084C60.2129 46.7883 53.9601 60.7957 52.908 67.9613Z" fill="#2E4C73"/>
<path d="M49.1503 85.3988C48.8496 73.6688 41.9055 49.3547 16.5337 45.9387C16.6339 59.9755 23.2975 87.5191 49.1503 85.3988Z" fill="#1E2F50"/>
<path d="M60.6878 35.7791L49.7154 59.3374C40.9375 52.2699 39.4444 46.3803 39.7951 44.319C38.4724 32.3043 48.9638 18.4049 54.3749 12.957C64.716 18.1399 62.8923 30.3313 60.6878 35.7791Z" fill="#5D7CA3"/>
</svg>
