<svg width="98" height="98" viewBox="0 0 98 98" fill="none" xmlns="http://www.w3.org/2000/svg">
<g filter="url(#filter0_d_233_1013)">
<circle cx="49" cy="45" r="45" fill="white"/>
<circle cx="49" cy="45" r="43" stroke="#F1F1F1" stroke-width="4"/>
</g>
<path d="M41.5074 21.7717C40.5962 19.4937 38.39 18 35.9365 18H27.6842C24.5449 18 22 20.5443 22 23.6836C22 50.3677 43.6323 72 70.3164 72C73.4557 72 76 69.4549 76 66.3155L76.0014 58.0619C76.0014 55.6084 74.5081 53.4026 72.2301 52.4914L64.3208 49.3288C62.2746 48.5103 59.9449 48.8787 58.2518 50.2896L56.2106 51.992C53.8266 53.9787 50.3189 53.8207 48.1246 51.6264L42.3767 45.8732C40.1824 43.6789 40.0202 40.174 42.0068 37.7901L43.709 35.7489C45.1198 34.0559 45.4915 31.7255 44.673 29.6793L41.5074 21.7717Z" stroke="#2284FF" stroke-width="2" stroke-linecap="round" stroke-linejoin="round"/>
<defs>
<filter id="filter0_d_233_1013" x="0" y="0" width="98" height="98" filterUnits="userSpaceOnUse" color-interpolation-filters="sRGB">
<feFlood flood-opacity="0" result="BackgroundImageFix"/>
<feColorMatrix in="SourceAlpha" type="matrix" values="0 0 0 0 0 0 0 0 0 0 0 0 0 0 0 0 0 0 127 0" result="hardAlpha"/>
<feOffset dy="4"/>
<feGaussianBlur stdDeviation="2"/>
<feComposite in2="hardAlpha" operator="out"/>
<feColorMatrix type="matrix" values="0 0 0 0 0 0 0 0 0 0 0 0 0 0 0 0 0 0 0.25 0"/>
<feBlend mode="normal" in2="BackgroundImageFix" result="effect1_dropShadow_233_1013"/>
<feBlend mode="normal" in="SourceGraphic" in2="effect1_dropShadow_233_1013" result="shape"/>
</filter>
</defs>
</svg>
